<svg height="142" viewBox="0 0 400.00461 142" width="400.00461" xmlns="http://www.w3.org/2000/svg">
  <path d="m140.05516 39.389019c0-23.079207 16.31376-39.38969393 38.32768-39.38969393 4.90691 0 10.61361 1.45863473 14.18973 4.24479103v7.8241819c-2.38626-1.989643-8.2208-4.2447906-14.18973-4.2447906-18.03791 0-30.23799 12.7310956-30.23799 31.5655116 0 17.903512 12.99987 31.300007 30.23799 31.300007 17.11027 0 29.57586-12.599982 29.57586-30.23799v-38.1965633h7.95858v38.3276763c0 22.017191-15.51725 38.196564-37.53444 38.196564-21.6173 0-38.32768-17.110277-38.32768-39.389694m52.51741-15.782756-.13112.134391c-3.31388-2.651765-8.75181-4.244791-13.9275-4.244791-10.60706 0-18.56563 7.955296-18.56563 19.758765 0 11.275738 7.82418 19.896433 18.3034 19.896433 11.27246 0 18.16902-8.224077 18.16902-19.231033v-37.6655553h7.82418v38.0621723c0 15.386138-10.74145 26.658599-25.86208 26.658599-14.98625 0-26.52421-11.272461-26.52421-27.720616 0-16.310487 11.40685-27.982842 26.52421-27.586225 5.7067.134391 11.54124 2.255148 14.18973 4.113678zm31.83101 37.799946c2.38954 3.048383 5.04131 6.365548 7.82746 9.148426v35.944695h-7.82746zm11.67236 45.093121v-33.027425c2.38626 1.85853 5.0413 4.113677 7.82746 5.175695v27.85173zm7.82746-64.193041h-.26551l-6.10332-8.355191c1.05874-9.548322 10.74473-22.282695 25.33108-22.282695 14.85513 0 25.59658 12.072251 25.59658 27.855007 0 15.779478-11.00695 27.451834-26.12431 27.451834-14.72402 0-23.21032-10.741452-29.17925-18.700025-2.91727-3.844896-7.9553-10.07933-13.53089-17.903513v-12.734373c5.17242 7.693069 12.20337 16.710382 17.37578 22.944816 8.75509 10.479226 14.05862 18.434521 25.19997 18.434521 10.87584 0 18.30341-8.355191 18.30341-19.49326 0-11.537965-7.03095-20.027547-17.64129-20.027547-11.14135 0-18.96225 10.210444-18.96225 21.617295zm-24.27562 5.834539v-11.537965c4.64469 6.234434 8.62398 11.672356 12.33776 16.179373 9.41393 11.541243 17.63801 17.90679 30.37238 17.90679 17.23811 0 29.83809-12.999877 29.83809-31.300007 0-17.903512-12.33447-31.5655116-29.31036-31.5655116-13.78983 0-25.72769 9.4172086-28.51057 22.2794166l-5.57559-7.558678c4.37918-12.5967041 17.24467-22.54492093 33.95505-22.54492093 21.4829 0 37.26893 17.24139093 37.26893 39.38969393 0 22.413808-15.91714 39.258581-37.66555 39.258581-22.5482 0-32.89303-16.844773-42.71014-30.506772m-122.676096-45.8863553h7.824186v40.9794423c0 16.182651 10.87584 27.189607 26.65859 27.189607 5.30354 0 10.74146-1.724139 13.131-3.182774 1.45535 1.724139 3.05166 3.579392 5.17241 5.303531-4.90691 3.448278-11.53796 5.437921-18.70002 5.437921-20.82406 0-34.086166-14.058617-34.086166-34.879399zm11.537966 40.9794423v-40.9794423h7.82746v40.8483283c0 9.151704 5.96565 15.648365 14.85185 15.648365 2.65504 0 5.03803-.662122 7.56196-1.724139 1.05874 2.520652 2.12075 4.641409 3.445 6.631052-2.78288 1.85853-6.89656 3.051661-10.87585 3.051661-13.39321 0-22.81042-9.682713-22.81042-23.475825m-108.4896487 6.765443c0-28.648242 21.2206777-50.00003293 49.7345287-50.00003293 25.996476 0 41.910345 16.31048693 41.910345 42.70685893v13.527608h-40.979441v-7.693069h33.555154v-7.162061c0-20.689668-12.865486-33.5551546-34.486058-33.5551546-23.738052 0-41.3793377 18.1722946-41.3793377 42.1758506 0 23.341433 18.5689117 41.775954 42.5757457 41.775954 11.403574 0 21.748408-2.786156 29.575868-8.220799v7.824182c-7.561956 5.437921-17.506895 8.224078-29.575868 8.224078-28.782633 0-50.9309367-21.886077-50.9309367-49.603415m12.3344777 0c0-21.617295 16.317042-38.196564 37.400051-38.196564 20.296328 0 30.506772 13.130991 30.506772 27.586225v5.172417h-29.575868v-7.958573h21.486181c.131113-7.824183-7.027669-16.975886-22.417085-16.975886-16.972609 0-28.776078 12.599981-28.776078 30.372381 0 17.110277 12.731095 29.972485 30.23799 29.972485 11.403574 0 20.424164-2.782878 28.779355-8.620695l.531009.399895v7.424287c-6.234434 4.379183-16.844773 8.623974-29.575868 8.623974-21.617295 0-38.596459-16.71366-38.596459-37.799946" fill="#00b14f" transform="matrix(1.3333333 0 0 -1.3333333 -.000002 141.9991)"/>
</svg>
